#!OML:ASF F:\VICON\USERDATA\INSTALL\rory3\rory3.ASF
:FULLY-SPECIFIED
:DEGREES
4895
root 0.879384 15.3479 2.34326 -1.04104 -34.6118 1.47791
lowerback 11.5412 -1.09517 -2.70352
upperback 0.447997 -1.55437 4.7818
thorax -5.80815 -0.641882 6.87229
lowerneck -23.4932 6.87431 -7.41319
upperneck 23.7447 12.457 -0.290962
head 11.1614 4.8683 3.05509
rclavicle -2.50469e-014 6.36111e-015
rhumerus -35.3849 16.0672 -88.0479
rradius 138.883
rwrist -2.85142
rhand -10.0223 26.4591
rfingers 7.12502
rthumb 15.9622 -2.90322
lclavicle -2.50469e-014 6.36111e-015
lhumerus -10.3165 0.190196 79.7759
lradius 126.408
lwrist -0.349769
lhand -8.98023 8.31236
lfingers 7.12502
lthumb 16.9655 37.5914
rfemur 0.942786 3.12346 12.2741
rtibia 66.4235
rfoot -22.2791 -1.08548
rtoes -32.0946
lfemur -46.9763 -6.29174 -5.02169
ltibia 50.0494
lfoot -1.47927 -19.0473
ltoes -24.1553
4896
root 0.803732 15.3588 2.38726 -0.436748 -31.8539 1.1483
lowerback 11.2588 -0.792109 -3.32655
upperback 0.278272 -1.23375 4.51264
thorax -5.86663 -0.46074 6.88445
lowerneck -23.8754 5.85822 -7.52921
upperneck 23.7415 10.8464 0.658687
head 11.2206 4.25878 3.19332
rclavicle -8.02096e-014 5.88403e-014
rhumerus -31.9589 16.1157 -86.8123
rradius 140.547
rwrist -1.33529
rhand -9.96937 26.0344
rfingers 7.12502
rthumb 16.0131 -3.32379
lclavicle -8.02096e-014 5.88403e-014
lhumerus -9.94693 -3.29011 81.272
lradius 125.804
lwrist -0.904111
lhand -9.33745 8.68056
lfingers 7.12502
lthumb 16.6216 37.9888
rfemur 1.44318 1.95546 13.2781
rtibia 66.05
rfoot -21.8585 -0.974798
rtoes -30.3807
lfemur -48.1476 -7.91337 -5.03028
ltibia 50.0216
lfoot -1.14201 -19.6618
ltoes -23.3157
4897
root 0.737753 15.3735 2.42895 0.362514 -29.131 0.732463
lowerback 10.8368 -0.458694 -3.61341
upperback 0.11941 -0.828523 4.19673
thorax -5.85576 -0.250858 6.63443
lowerneck -24.0757 4.72312 -7.82756
upperneck 23.4901 9.106 1.60265
head 11.1737 3.5897 3.32145
rclavicle 2.17669e-014 -9.54166e-015
rhumerus -28.2943 16.0959 -84.9943
rradius 142.099
rwrist -0.0275599
rhand -9.99806 25.4092
rfingers 7.12502
rthumb 15.9855 -3.95127
lclavicle 2.17669e-014 -9.54166e-015
lhumerus -9.51333 -6.70435 82.5861
lradius 125.129
lwrist -0.811066
lhand -9.55635 8.36837
lfingers 7.12502
lthumb 16.4108 37.6942
rfemur 1.75683 0.634521 14.2858
rtibia 65.5472
rfoot -21.5342 -0.922546
rtoes -30.0231
lfemur -49.415 -9.43116 -4.90185
ltibia 49.8106
lfoot -0.30759 -20.1029
ltoes -21.0753
4898
root 0.683622 15.3957 2.46673 0.951747 -26.2484 0.412403
lowerback 10.7424 -0.0914089 -3.70813
upperback -0.0259909 -0.363923 3.81858
thorax -6.02323 -0.0136281 6.20919
lowerneck -24.0679 3.46869 -8.18908
upperneck 23.052 7.23873 2.41429
head 11.0583 2.84624 3.38059
rclavicle -6.16232e-014 0
rhumerus -24.4697 15.7036 -82.4581
rradius 143.498
rwrist 0.964365
rhand -10.276 24.8041
rfingers 7.12502
rthumb 15.7179 -4.57756
lclavicle -6.16232e-014 0
lhumerus -9.04267 -10.281 83.7886
lradius 124.421
lwrist -0.712097
lhand -9.85477 8.52259
lfingers 7.12502
lthumb 16.1235 37.8719
rfemur 2.25518 -0.989995 15.1144
rtibia 64.9194
rfoot -21.1626 -0.822391
rtoes -29.8624
lfemur -50.4755 -11.0318 -4.92357
ltibia 49.4217
lfoot 0.437146 -20.6036
ltoes -19.5591
4899
root 0.635665 15.4264 2.50136 1.47563 -23.7451 0.188223
lowerback 10.8335 0.424336 -3.77769
upperback -0.136109 0.292423 3.40096
thorax -6.27711 0.316623 5.69859
lowerneck -24.2502 2.19723 -8.70545
upperneck 22.6932 5.40009 3.36427
head 11.023 2.11099 3.53029
rclavicle 9.54166e-015 -2.22639e-014
rhumerus -20.3743 14.9816 -79.2852
rradius 144.512
rwrist 2.02484
rhand -10.7729 24.1733
rfingers 7.12502
rthumb 15.2392 -5.24543
lclavicle 9.54166e-015 -2.22639e-014
lhumerus -8.7384 -13.6209 84.8365
lradius 123.847
lwrist -0.748045
lhand -9.91468 8.61873
lfingers 7.12502
lthumb 16.0658 37.9727
rfemur 2.65792 -2.31488 15.8025
rtibia 64.2001
rfoot -20.6761 -0.643884
rtoes -29.7385
lfemur -51.2537 -12.2768 -5.08303
ltibia 48.8658
lfoot 0.893065 -20.8971
ltoes -19.0364
4900
root 0.599079 15.4537 2.52633 2.0117 -21.7115 0.0106101
lowerback 10.5947 1.03345 -3.56977
upperback 0.122898 1.101 2.82759
thorax -5.95198 0.685139 4.83047
lowerneck -24.7924 0.941067 -9.21485
upperneck 22.1545 3.60437 4.39452
head 11.0134 1.41059 3.71682
rclavicle -6.7388e-014 1.66979e-014
rhumerus -15.5003 13.8059 -75.5845
rradius 144.885
rwrist 2.91421
rhand -11.704 23.5697
rfingers 7.12502
rthumb 14.3422 -5.9149
lclavicle -6.7388e-014 1.66979e-014
lhumerus -7.99487 -16.5693 85.314
lradius 123.392
lwrist -0.91787
lhand -10.1447 8.23722
lfingers 7.12502
lthumb 15.8443 37.6089
rfemur 2.87084 -3.29233 16.3571
rtibia 63.4453
rfoot -20.2575 -0.145555
rtoes -29.1418
lfemur -51.8576 -13.0302 -5.37055
ltibia 48.2042
lfoot 1.51351 -20.7641
ltoes -17.8515
4901
root 0.570248 15.479 2.53573 2.56479 -19.9715 -0.159751
lowerback 10.3367 1.73326 -3.12727
upperback 0.423279 2.05478 2.20244
thorax -5.55388 1.11932 3.76702
lowerneck -24.8716 -0.284203 -9.78054
upperneck 21.2976 1.86338 5.3377
head 10.8298 0.724396 3.86491
rclavicle -7.45443e-015 -1.15295e-014
rhumerus -10.3408 11.9639 -71.4976
rradius 144.367
rwrist 3.6078
rhand -12.6073 22.7122
rfingers 7.12502
rthumb 13.4717 -6.83209
lclavicle -7.45443e-015 -1.15295e-014
lhumerus -7.15134 -19.3534 85.5257
lradius 123.081
lwrist -1.33813
lhand -10.1034 7.85063
lfingers 7.12502
lthumb 15.8841 37.2192
rfemur 2.9072 -4.15038 16.8295
rtibia 62.6664
rfoot -19.7703 0.200782
rtoes -28.3319
lfemur -52.3474 -13.3316 -5.78164
ltibia 47.5073
lfoot 2.05025 -20.6439
ltoes -17.1999
4902
root 0.542374 15.5116 2.54275 3.0872 -18.5179 -0.381876
lowerback 10.4417 2.48375 -2.57235
upperback 0.452557 3.08409 1.63812
thorax -5.61217 1.60368 2.69447
lowerneck -24.4768 -1.33438 -10.1529
upperneck 20.4793 0.36113 5.88908
head 10.5869 0.0994701 3.86732
rclavicle -1.58034e-014 -4.77083e-015
rhumerus -5.09101 9.50248 -67.2841
rradius 142.673
rwrist 4.09876
rhand -12.7798 21.6528
rfingers 7.12502
rthumb 13.3054 -7.90248
lclavicle -1.58034e-014 -4.77083e-015
lhumerus -6.93817 -22.2417 85.7375
lradius 122.973
lwrist -3.25657
lhand -10.5569 8.19307
lfingers 7.12502
lthumb 15.4473 37.5958
rfemur 2.99602 -4.88453 17.2805
rtibia 61.8048
rfoot -19.1531 0.313927
rtoes -27.0415
lfemur -52.6485 -13.3251 -6.24389
ltibia 46.8516
lfoot 2.19842 -20.579
ltoes -17.4155
4903
root 0.517843 15.5454 2.54678 3.56388 -17.4128 -0.730858
lowerback 10.733 3.17525 -1.77857
upperback 0.421368 4.06209 1.1058
thorax -5.77943 2.0565 1.52121
lowerneck -24.1162 -2.17179 -10.3503
upperneck 19.8312 -0.844719 6.22663
head 10.3997 -0.413996 3.81603
rclavicle 4.80562e-014 1.19271e-014
rhumerus 0.39627 6.83397 -63.3504
rradius 139.709
rwrist 4.05668
rhand -12.4616 20.4814
rfingers 7.12502
rthumb 13.6121 -9.05353
lclavicle 4.80562e-014 1.19271e-014
lhumerus -6.99665 -24.3044 85.6428
lradius 123.003
lwrist -4.32949
lhand -10.18 7.47437
lfingers 7.12502
lthumb 15.8103 36.8488
rfemur 3.18794 -5.45187 17.7659
rtibia 60.8519
rfoot -18.6383 0.712914
rtoes -25.8213
lfemur -52.8168 -13.1208 -6.52124
ltibia 46.2425
lfoot 2.60252 -20.3784
ltoes -16.632
